<?xml version="1.0" encoding="UTF-8" standalone="no"?>
<!-- Created with Inkscape (http://www.inkscape.org/) -->

<svg
   width="697.26398mm"
   height="136.5921mm"
   viewBox="0 0 697.26398 136.5921"
   version="1.1"
   id="svg5"
   xml:space="preserve"
   inkscape:version="1.2.1 (9c6d41e410, 2022-07-14)"
   sodipodi:docname="LOGO REIMAGINADA_R00.svg"
   inkscape:export-filename="LOGO REIMAGINADA_R00.pdf"
   inkscape:export-xdpi="96"
   inkscape:export-ydpi="96"
   xmlns:inkscape="http://www.inkscape.org/namespaces/inkscape"
   xmlns:sodipodi="http://sodipodi.sourceforge.net/DTD/sodipodi-0.dtd"
   xmlns="http://www.w3.org/2000/svg"
   xmlns:svg="http://www.w3.org/2000/svg"><sodipodi:namedview
     id="namedview7"
     pagecolor="#ffffff"
     bordercolor="#111111"
     borderopacity="1"
     inkscape:showpageshadow="0"
     inkscape:pageopacity="0"
     inkscape:pagecheckerboard="1"
     inkscape:deskcolor="#d1d1d1"
     inkscape:document-units="mm"
     showgrid="false"
     inkscape:zoom="0.2102413"
     inkscape:cx="958.42253"
     inkscape:cy="975.07007"
     inkscape:window-width="1920"
     inkscape:window-height="1017"
     inkscape:window-x="-8"
     inkscape:window-y="-8"
     inkscape:window-maximized="1"
     inkscape:current-layer="layer1" /><defs
     id="defs2" /><g
     inkscape:label="Camada 1"
     inkscape:groupmode="layer"
     id="layer1"
     transform="translate(-57.626959,-213.20892)"><g
       id="g3133"
       inkscape:export-filename="..\..\..\..\..\OneDrive - GeoMAG\(A) ADM\1) DOCUMENTOS CORPORATIVOS\LOGOMARCA\LOGO\LOGO ATUALIZADA (2025)\LOGO-GeoMAG-FUNDO TRANSPARENTE.svg"
       inkscape:export-xdpi="150"
       inkscape:export-ydpi="150"><g
         id="g3121"
         transform="translate(0,1.9402311)"><text
           xml:space="preserve"
           style="font-style:normal;font-variant:normal;font-weight:bold;font-stretch:normal;font-size:125.134px;font-family:sans-serif;-inkscape-font-specification:'sans-serif, Bold';font-variant-ligatures:normal;font-variant-caps:normal;font-variant-numeric:normal;font-variant-east-asian:normal;fill:#4882a3;fill-opacity:1;stroke-width:0.312834"
           x="213.53918"
           y="307.05704"
           id="text2411"
           transform="scale(1.0229208,0.9775928)"><tspan
             sodipodi:role="line"
             id="tspan2409"
             style="font-style:normal;font-variant:normal;font-weight:bold;font-stretch:normal;font-size:125.134px;font-family:sans-serif;-inkscape-font-specification:'sans-serif, Bold';font-variant-ligatures:normal;font-variant-caps:normal;font-variant-numeric:normal;font-variant-east-asian:normal;fill:#4882a3;fill-opacity:1;stroke-width:0.312834"
             x="213.53918"
             y="307.05704">GeoMAG</tspan></text><text
           xml:space="preserve"
           style="font-style:normal;font-variant:normal;font-weight:bold;font-stretch:normal;font-size:35.5987px;font-family:sans-serif;-inkscape-font-specification:'sans-serif, Bold';font-variant-ligatures:normal;font-variant-caps:normal;font-variant-numeric:normal;font-variant-east-asian:normal;fill:#4a83a4;fill-opacity:1;stroke-width:0.26699"
           x="229.02068"
           y="350.32465"
           id="text2253-1"
           transform="scale(1.0090956,0.99098638)"><tspan
             sodipodi:role="line"
             id="tspan2251-1"
             style="font-style:normal;font-variant:normal;font-weight:bold;font-stretch:normal;font-size:35.5987px;font-family:sans-serif;-inkscape-font-specification:'sans-serif, Bold';font-variant-ligatures:normal;font-variant-caps:normal;font-variant-numeric:normal;font-variant-east-asian:normal;stroke-width:0.26699"
             x="229.02068"
             y="350.32465">TOPOGRAFIA &amp; ENGENHARIA</tspan></text></g><g
         id="g2638"
         transform="translate(24.916525,42.961897)"
         style="fill:#4882a3;fill-opacity:1"><path
           style="fill:#4882a3;fill-opacity:1;stroke-width:0.211566"
           d="m 94.970211,305.29072 c 0.01015,-0.24646 0.06028,-0.29659 0.127819,-0.12782 0.06112,0.15272 0.0536,0.3352 -0.01669,0.4055 -0.0703,0.0703 -0.120305,-0.0547 -0.111119,-0.27768 z m 0.423131,-4.86601 c 0.01015,-0.24646 0.06028,-0.29659 0.127819,-0.12782 0.06111,0.15272 0.0536,0.3352 -0.01669,0.4055 -0.0703,0.0703 -0.120305,-0.0546 -0.111119,-0.27768 z m -42.980531,-13.15233 -0.5129,-0.5818 0.581805,0.5129 c 0.543785,0.47938 0.678827,0.65071 0.512901,0.65071 -0.0379,0 -0.299708,-0.26181 -0.581806,-0.58181 z m 45.251381,-5.48655 c 0.152722,-0.0611 0.3352,-0.0536 0.405501,0.0167 0.0703,0.0703 -0.05466,0.12031 -0.27768,0.11112 -0.246463,-0.0102 -0.296594,-0.0603 -0.127821,-0.12782 z m 6.135398,0 c 0.15273,-0.0611 0.3352,-0.0536 0.4055,0.0167 0.0703,0.0703 -0.0546,0.12031 -0.27767,0.11112 -0.24647,-0.0102 -0.2966,-0.0603 -0.12783,-0.12782 z m 35.37112,-3.94142 c 0,-0.0364 0.30942,-0.34583 0.68759,-0.68759 l 0.68759,-0.62139 -0.62139,0.68759 c -0.57922,0.64093 -0.75379,0.78483 -0.75379,0.62139 z m 2.53879,-2.76403 c 0,-0.0439 0.16661,-0.21054 0.37024,-0.37024 0.33556,-0.26316 0.34304,-0.25568 0.0799,0.0799 -0.27638,0.35242 -0.45012,0.46449 -0.45012,0.29037 z m -82.537564,-0.50193 c -0.26316,-0.33556 -0.255677,-0.34304 0.07988,-0.0799 0.352415,0.27638 0.464488,0.45012 0.290361,0.45012 -0.04393,0 -0.210539,-0.16661 -0.37024,-0.37024 z m 17.375366,-11.16009 c -0.5139,-0.52362 -0.886761,-0.95204 -0.82858,-0.95204 0.05818,0 0.526246,0.42842 1.040145,0.95204 0.513899,0.52363 0.88676,0.95205 0.82858,0.95205 -0.05818,0 -0.526246,-0.42842 -1.040145,-0.95205 z m 50.352608,-2.08975 c 0,-0.0439 0.16661,-0.21054 0.37024,-0.37024 0.33556,-0.26316 0.34304,-0.25567 0.0799,0.0799 -0.27638,0.35242 -0.45012,0.46449 -0.45012,0.29036 z m -52.706817,-0.50192 c -0.26316,-0.33556 -0.255677,-0.34304 0.07988,-0.0799 0.352415,0.27638 0.464488,0.45012 0.290361,0.45012 -0.04393,0 -0.21054,-0.16661 -0.37024,-0.37024 z M 57.523102,240.97478 c 0.01015,-0.24646 0.06028,-0.29659 0.127819,-0.12782 0.06112,0.15272 0.0536,0.3352 -0.01669,0.4055 -0.0703,0.0703 -0.120305,-0.0547 -0.111119,-0.27768 z m 86.530328,0 c 0.0102,-0.24646 0.0603,-0.29659 0.12782,-0.12782 0.0611,0.15272 0.0536,0.3352 -0.0167,0.4055 -0.0703,0.0703 -0.1203,-0.0547 -0.11112,-0.27768 z m 11.47897,-1.35754 c 0,-0.87271 0.0373,-1.22973 0.083,-0.79337 0.0457,0.43635 0.0457,1.15038 0,1.58674 -0.0456,0.43635 -0.083,0.0793 -0.083,-0.79337 z m -89.335109,0.93441 c 0.01015,-0.24646 0.06028,-0.29659 0.127819,-0.12782 0.06112,0.15272 0.0536,0.3352 -0.01669,0.4055 -0.0703,0.0703 -0.120305,-0.0547 -0.111119,-0.27768 z m 21.815797,-0.4055 c 0.0043,-0.34908 0.05173,-0.46628 0.105368,-0.26043 0.05364,0.20585 0.05011,0.49146 -0.0078,0.6347 -0.05795,0.14323 -0.101841,-0.0252 -0.09753,-0.37427 z m 25.380032,-1.16361 c 0,-0.2909 0.048,-0.40991 0.10671,-0.26446 0.0587,0.14545 0.0587,0.38347 0,0.52892 -0.0587,0.14545 -0.10671,0.0264 -0.10671,-0.26446 z m -25.372194,-1.05783 c 0,-0.40726 0.04354,-0.57387 0.09676,-0.37024 0.05321,0.20363 0.05321,0.53685 0,0.74048 -0.05322,0.20363 -0.09676,0.037 -0.09676,-0.37024 z m 25.372194,-0.84626 c 0,-0.2909 0.048,-0.40991 0.10671,-0.26446 0.0587,0.14545 0.0587,0.38347 0,0.52892 -0.0587,0.14545 -0.10671,0.0264 -0.10671,-0.26446 z m -47.179128,-0.42313 c 0,-0.2909 0.04802,-0.40991 0.106712,-0.26446 0.05869,0.14545 0.05869,0.38346 0,0.52892 -0.05869,0.14545 -0.106712,0.0264 -0.106712,-0.26446 z m -8.69089,-0.33498 c 0.01015,-0.24646 0.06028,-0.29659 0.127819,-0.12782 0.06112,0.15272 0.0536,0.3352 -0.01669,0.4055 -0.0703,0.0703 -0.120305,-0.0547 -0.111119,-0.27768 z m 86.530328,0 c 0.0102,-0.24646 0.0603,-0.29659 0.12782,-0.12782 0.0611,0.15272 0.0536,0.3352 -0.0167,0.4055 -0.0703,0.0703 -0.1203,-0.0547 -0.11112,-0.27768 z M 35.252344,233.12575 c 0.152724,-0.0611 0.335199,-0.0536 0.405501,0.0167 0.0703,0.0703 -0.05466,0.1203 -0.27768,0.11112 -0.246462,-0.0102 -0.296594,-0.0603 -0.127821,-0.12782 z m 38.373442,-12.28427 c 1.476736,-0.0363 3.952054,-0.0364 5.500705,-2.2e-4 1.548654,0.0362 0.340416,0.0659 -2.684972,0.066 -3.025388,1.2e-4 -4.292467,-0.0295 -2.815733,-0.0658 z m 22.10641,-4.3e-4 c 2.81368,-0.0333 7.478704,-0.0333 10.366714,-7e-5 2.88801,0.0333 0.58591,0.0605 -5.11578,0.0606 -5.701696,4e-5 -8.064615,-0.0272 -5.250934,-0.0605 z m 26.765244,4.3e-4 c 1.47673,-0.0363 3.95205,-0.0364 5.5007,-2.2e-4 1.54866,0.0362 0.34042,0.0659 -2.68497,0.066 -3.02539,1.2e-4 -4.29247,-0.0295 -2.81573,-0.0658 z m -47.431098,-5.4226 c 0,-0.0439 0.166608,-0.21054 0.37024,-0.37024 0.335556,-0.26316 0.343039,-0.25567 0.07988,0.0799 -0.276383,0.35242 -0.450119,0.46449 -0.450119,0.29036 z m 49.278768,-2.19445 -0.5129,-0.5818 0.58181,0.5129 c 0.54378,0.47938 0.67882,0.65071 0.5129,0.65071 -0.0379,0 -0.29971,-0.26182 -0.58181,-0.58181 z M 57.717964,204.8406 c 0,-0.0439 0.166608,-0.21054 0.37024,-0.37024 0.335556,-0.26316 0.343039,-0.25567 0.07988,0.0799 -0.276383,0.35242 -0.450119,0.46449 -0.450119,0.29036 z m 42.273449,-0.9109 c 0.152727,-0.0611 0.335197,-0.0536 0.405497,0.0167 0.0703,0.0703 -0.0547,0.1203 -0.27768,0.11112 -0.246459,-0.0102 -0.296589,-0.0603 -0.127817,-0.12782 z m 1.679297,0.004 c 0.14546,-0.0587 0.38347,-0.0587 0.52892,0 0.14545,0.0587 0.0264,0.10671 -0.26446,0.10671 -0.2909,0 -0.40991,-0.048 -0.26446,-0.10671 z M 51.899911,190.74559 c 0.573057,-0.58181 1.089525,-1.05783 1.147705,-1.05783 0.05818,0 -0.363082,0.47602 -0.93614,1.05783 -0.573057,0.5818 -1.089524,1.05783 -1.147705,1.05783 -0.05818,0 0.363083,-0.47603 0.93614,-1.05783 z m 3.173484,-2.96192 c 0.210611,-0.23272 0.430531,-0.42313 0.488712,-0.42313 0.05818,0 -0.06653,0.19041 -0.277147,0.42313 -0.210611,0.23272 -0.430531,0.42313 -0.488712,0.42313 -0.05818,0 0.06654,-0.19041 0.277147,-0.42313 z m 43.846967,-3.73673 c 0.145452,-0.0587 0.383463,-0.0587 0.528914,0 0.145452,0.0587 0.02645,0.10671 -0.264457,0.10671 -0.290902,0 -0.409908,-0.048 -0.264457,-0.10671 z m -1.890867,-13.75617 c 0.152723,-0.0611 0.3352,-0.0536 0.405501,0.0167 0.0703,0.0703 -0.05466,0.12031 -0.27768,0.11112 -0.246463,-0.0101 -0.296593,-0.0603 -0.127821,-0.12782 z m 5.275915,0.004 c 0.14545,-0.0587 0.38346,-0.0587 0.52892,0 0.14545,0.0587 0.0264,0.10671 -0.26446,0.10671 -0.2909,0 -0.40991,-0.048 -0.26446,-0.10671 z"
           id="path2646" /><path
           style="fill:#4882a3;fill-opacity:1;stroke-width:0.211566"
           d="m 109.3003,306.539 c 0.15272,-0.0611 0.3352,-0.0536 0.4055,0.0167 0.0703,0.0703 -0.0547,0.1203 -0.27768,0.11111 -0.24646,-0.0102 -0.29659,-0.0603 -0.12782,-0.12782 z m -2.90555,-3.15237 c 0.0102,-0.24646 0.0603,-0.29659 0.12782,-0.12782 0.0611,0.15272 0.0536,0.3352 -0.0167,0.4055 -0.0703,0.0703 -0.12031,-0.0547 -0.11112,-0.27768 z m -0.86296,-9.71439 c 0,-0.17454 0.0922,-0.31735 0.20492,-0.31735 0.11271,0 0.15013,0.14281 0.0832,0.31735 -0.067,0.17454 -0.15919,0.31735 -0.20493,0.31735 -0.0457,0 -0.0831,-0.14281 -0.0831,-0.31735 z m -48.898641,-2.59168 c -0.26316,-0.33555 -0.255677,-0.34303 0.07988,-0.0799 0.203632,0.1597 0.37024,0.3263 0.37024,0.37024 0,0.17412 -0.173736,0.062 -0.450119,-0.29037 z M 125.1016,263.31258 c 0.4545,-0.46544 0.87396,-0.84626 0.93214,-0.84626 0.0582,0 -0.26608,0.38082 -0.72057,0.84626 -0.45449,0.46545 -0.87396,0.84626 -0.93214,0.84626 -0.0582,0 0.26608,-0.38081 0.72057,-0.84626 z M 32.981493,247.11019 c 0.01015,-0.24647 0.06028,-0.2966 0.127821,-0.12783 0.06112,0.15273 0.0536,0.3352 -0.0167,0.40551 -0.0703,0.0703 -0.120305,-0.0547 -0.111118,-0.27768 z m 136.069057,-4.53103 c 0,-0.40727 0.0435,-0.57388 0.0968,-0.37024 0.0532,0.20363 0.0532,0.53684 0,0.74047 -0.0532,0.20364 -0.0968,0.037 -0.0968,-0.37023 z m -47.18697,-0.31735 c 0.004,-0.34909 0.0517,-0.46628 0.10537,-0.26043 0.0536,0.20584 0.0501,0.49146 -0.008,0.63469 -0.058,0.14324 -0.10184,-0.0252 -0.0975,-0.37426 z m 33.61439,-0.8639 c 0.0102,-0.24646 0.0603,-0.29659 0.12782,-0.12782 0.0611,0.15273 0.0536,0.3352 -0.0167,0.4055 -0.0703,0.0703 -0.1203,-0.0547 -0.11111,-0.27768 z M 88.005247,241.0982 c 0,-0.29091 0.04802,-0.40991 0.106712,-0.26446 0.05869,0.14545 0.05869,0.38346 0,0.52891 -0.05869,0.14545 -0.106712,0.0265 -0.106712,-0.26445 z m -30.445495,-1.16361 c 0.0023,-0.46545 0.04567,-0.63095 0.09628,-0.36778 0.0506,0.26317 0.04868,0.64399 -0.0043,0.84626 -0.05295,0.20228 -0.09436,-0.013 -0.09201,-0.47848 z m 86.530328,0 c 0.002,-0.46545 0.0457,-0.63095 0.0963,-0.36778 0.0506,0.26317 0.0487,0.64399 -0.004,0.84626 -0.053,0.20228 -0.0944,-0.013 -0.092,-0.47848 z m -30.69696,-0.10579 c 0,-0.2909 0.048,-0.40991 0.10671,-0.26445 0.0587,0.14545 0.0587,0.38346 0,0.52891 -0.0587,0.14545 -0.10671,0.0265 -0.10671,-0.26446 z m -55.833368,-2.433 c 0.0023,-0.46545 0.04567,-0.63094 0.09628,-0.36777 0.0506,0.26316 0.04868,0.64398 -0.0043,0.84626 -0.05295,0.20227 -0.09436,-0.0131 -0.09201,-0.47849 z m 86.530328,0 c 0.002,-0.46545 0.0457,-0.63094 0.0963,-0.36777 0.0506,0.26316 0.0487,0.64398 -0.004,0.84626 -0.053,0.20227 -0.0944,-0.0131 -0.092,-0.47849 z m 11.41243,0.21156 c 0.004,-0.34908 0.0517,-0.46627 0.10537,-0.26043 0.0536,0.20585 0.0501,0.49146 -0.008,0.6347 -0.058,0.14324 -0.10184,-0.0252 -0.0975,-0.37427 z M 88.013088,236.7611 c 0.0043,-0.34908 0.05173,-0.46628 0.105368,-0.26043 0.05364,0.20585 0.05011,0.49146 -0.0078,0.6347 -0.05795,0.14323 -0.101841,-0.0252 -0.09753,-0.37427 z m 25.387872,-0.6347 c 0.004,-0.34908 0.0517,-0.46627 0.10537,-0.26043 0.0536,0.20585 0.0501,0.49146 -0.008,0.6347 -0.058,0.14324 -0.10184,-0.0252 -0.0975,-0.37427 z m -33.850496,-1.26939 c 0.0043,-0.34908 0.05173,-0.46628 0.105369,-0.26043 0.05364,0.20585 0.05011,0.49146 -0.0078,0.6347 -0.05795,0.14323 -0.101842,-0.0252 -0.09753,-0.37427 z m 88.498956,-7.72214 c -0.0719,-0.11636 -0.0299,-0.21157 0.0933,-0.21157 0.12323,0 0.22406,0.0952 0.22406,0.21157 0,0.11636 -0.042,0.21156 -0.0933,0.21156 -0.0513,0 -0.15214,-0.0952 -0.22405,-0.21156 z M 74.431646,216.05358 c 0,-0.0439 0.166608,-0.21054 0.370239,-0.37024 0.335556,-0.26316 0.343039,-0.25568 0.07988,0.0799 -0.276383,0.35241 -0.450118,0.46449 -0.450118,0.29036 z M 70.4119,207.80252 c 0,-0.0439 0.166608,-0.21054 0.370239,-0.37024 0.335556,-0.26316 0.343039,-0.25568 0.07988,0.0799 -0.276383,0.35242 -0.450118,0.46449 -0.450118,0.29036 z m 60.48077,-0.29036 c -0.26316,-0.33556 -0.25568,-0.34304 0.0799,-0.0799 0.20363,0.1597 0.37024,0.32631 0.37024,0.37024 0,0.17413 -0.17374,0.0621 -0.45012,-0.29036 z M 99.131928,203.9341 c 0.145451,-0.0587 0.383462,-0.0587 0.528914,0 0.145451,0.0587 0.02644,0.10672 -0.264457,0.10672 -0.290903,0 -0.409909,-0.048 -0.264457,-0.10672 z m 3.385052,0 c 0.14545,-0.0587 0.38346,-0.0587 0.52891,0 0.14545,0.0587 0.0264,0.10672 -0.26446,0.10672 -0.2909,0 -0.4099,-0.048 -0.26445,-0.10672 z m 37.1747,-3.50939 -1.04988,-1.11072 1.11072,1.04988 c 1.0321,0.97556 1.20774,1.17156 1.04988,1.17156 -0.0335,0 -0.53329,-0.49982 -1.11072,-1.11072 z m -78.377101,0.39615 c 0,-0.0439 0.166608,-0.21054 0.37024,-0.37024 0.335556,-0.26316 0.343039,-0.25568 0.07988,0.0799 -0.276383,0.35241 -0.450119,0.46448 -0.450119,0.29036 z m 1.163611,-1.18952 c 0.210612,-0.23272 0.430532,-0.42313 0.488712,-0.42313 0.05818,0 -0.06653,0.19041 -0.277146,0.42313 -0.210612,0.23272 -0.430532,0.42313 -0.488713,0.42313 -0.05818,0 0.06654,-0.19041 0.277147,-0.42313 z m 73.91518,-2.27433 c -0.26316,-0.33555 -0.25567,-0.34304 0.0799,-0.0799 0.35242,0.27639 0.46449,0.45012 0.29036,0.45012 -0.0439,0 -0.21053,-0.16661 -0.37024,-0.37024 z m -38.940744,-1.88994 c 0.152723,-0.0611 0.3352,-0.0536 0.405501,0.0167 0.0703,0.0703 -0.05465,0.1203 -0.277679,0.11112 -0.246464,-0.0102 -0.296594,-0.0603 -0.127822,-0.12782 z m 6.558534,0 c 0.15272,-0.0611 0.3352,-0.0536 0.4055,0.0167 0.0703,0.0703 -0.0547,0.1203 -0.27768,0.11112 -0.24646,-0.0102 -0.29659,-0.0603 -0.12782,-0.12782 z m -5.712272,-11.42454 c 0.152723,-0.0611 0.335201,-0.0536 0.405502,0.0167 0.0703,0.0703 -0.05466,0.1203 -0.27768,0.11111 -0.246463,-0.0102 -0.296594,-0.0603 -0.127822,-0.12782 z M 98.069382,170.2826 c 0.375578,-0.0467 1.042009,-0.0475 1.480959,-0.002 0.438948,0.0458 0.131657,0.084 -0.68287,0.085 -0.814528,9.3e-4 -1.173669,-0.0365 -0.798089,-0.0833 z m 3.614558,0.008 c 0.15272,-0.0611 0.3352,-0.0536 0.4055,0.0167 0.0703,0.0703 -0.0547,0.12031 -0.27768,0.11112 -0.24646,-0.0101 -0.29659,-0.0603 -0.12782,-0.12782 z"
           id="path2644" /><path
           style="fill:#4882a3;fill-opacity:1;stroke-width:0.211566"
           d="m 108.6656,306.539 c 0.15272,-0.0611 0.3352,-0.0536 0.4055,0.0167 0.0703,0.0703 -0.0546,0.1203 -0.27768,0.11111 -0.24646,-0.0102 -0.29659,-0.0603 -0.12782,-0.12782 z m 36.85208,-16.01434 c 0,-0.0439 0.16661,-0.21054 0.37024,-0.37024 0.33556,-0.26316 0.34304,-0.25567 0.0799,0.0799 -0.27638,0.35242 -0.45012,0.46449 -0.45012,0.29036 z m 3.59662,-3.41095 c 0.74962,-0.75635 1.41055,-1.37518 1.46873,-1.37518 0.0582,0 -0.50754,0.61883 -1.25717,1.37518 -0.74962,0.75635 -1.41055,1.37518 -1.46873,1.37518 -0.0582,0 0.50754,-0.61883 1.25717,-1.37518 z m -50.295694,-5.32997 c 0.205846,-0.0536 0.49146,-0.0501 0.634696,0.008 0.143237,0.058 -0.02518,0.10184 -0.374266,0.0975 -0.349083,-0.004 -0.466277,-0.0517 -0.26043,-0.10537 z m 3.596614,0 c 0.20585,-0.0536 0.49146,-0.0501 0.6347,0.008 0.14323,0.058 -0.0252,0.10184 -0.37427,0.0975 -0.34908,-0.004 -0.46628,-0.0517 -0.26043,-0.10537 z m -2.01143,-8.46564 c 0.26317,-0.0506 0.64398,-0.0487 0.84626,0.004 0.20228,0.053 -0.0131,0.0944 -0.47849,0.092 -0.46544,-0.002 -0.63094,-0.0457 -0.36777,-0.0963 z m -31.711402,-5.72132 c -0.26316,-0.33555 -0.255677,-0.34303 0.07988,-0.0799 0.352416,0.27638 0.464488,0.45011 0.290361,0.45011 -0.04393,0 -0.210539,-0.1666 -0.370239,-0.37024 z m 55.034042,-2.88312 c 0,-0.0439 0.16661,-0.21054 0.37024,-0.37024 0.33555,-0.26316 0.34304,-0.25567 0.0799,0.0799 -0.27639,0.35242 -0.45012,0.46449 -0.45012,0.29036 z m -33.427365,-8.43563 c 0,-0.0873 4.665021,-0.15868 10.366715,-0.15868 5.70169,0 10.36671,0.0714 10.36671,0.15868 0,0.0873 -4.66502,0.15867 -10.36671,0.15867 -5.701694,0 -10.366715,-0.0714 -10.366715,-0.15867 z m -16.884845,-0.1051 c 1.476737,-0.0363 3.952054,-0.0364 5.500706,-2.1e-4 1.548653,0.0362 0.340415,0.0659 -2.684973,0.066 -3.025388,1.2e-4 -4.292467,-0.0295 -2.815733,-0.0658 z m 49.10835,-2.1e-4 c 1.60693,-0.036 4.17745,-0.0359 5.71228,2e-4 1.53482,0.0361 0.22007,0.0655 -2.92168,0.0654 -3.14175,-1.1e-4 -4.39752,-0.0297 -2.7906,-0.0656 z m -89.541077,-9.69723 c 0.01015,-0.24646 0.06028,-0.2966 0.127821,-0.12782 0.06112,0.15272 0.0536,0.3352 -0.0167,0.4055 -0.0703,0.0703 -0.120305,-0.0547 -0.111118,-0.27768 z m 46.561131,-3.4732 c 0,-0.29091 0.04802,-0.40991 0.106711,-0.26446 0.05869,0.14545 0.05869,0.38346 0,0.52891 -0.05869,0.14545 -0.106711,0.0265 -0.106711,-0.26445 z m 8.470464,-0.95205 c 0.0043,-0.34908 0.05173,-0.46628 0.105368,-0.26043 0.05364,0.20585 0.05011,0.49146 -0.0078,0.6347 -0.05795,0.14323 -0.101841,-0.0252 -0.09753,-0.37427 z m 67.464882,-0.0176 c 0.0102,-0.24647 0.0603,-0.2966 0.12782,-0.12782 0.0611,0.15272 0.0536,0.3352 -0.0167,0.4055 -0.0703,0.0703 -0.1203,-0.0547 -0.11111,-0.27768 z m 13.57258,-0.72286 c 0,-0.40726 0.0435,-0.57387 0.0968,-0.37024 0.0532,0.20363 0.0532,0.53685 0,0.74048 -0.0532,0.20363 -0.0968,0.037 -0.0968,-0.37024 z M 121.86358,241.204 c 0.004,-0.34908 0.0517,-0.46628 0.10537,-0.26043 0.0536,0.20584 0.0501,0.49146 -0.008,0.63469 -0.058,0.14324 -0.10184,-0.0252 -0.0975,-0.37426 z m -8.47046,-0.52892 c 0,-0.2909 0.048,-0.4099 0.10671,-0.26445 0.0587,0.14545 0.0587,0.38346 0,0.52891 -0.0587,0.14545 -0.10671,0.0265 -0.10671,-0.26446 z m -55.845476,-2.00987 c 0.0043,-0.34908 0.05173,-0.46628 0.105368,-0.26043 0.05364,0.20585 0.05011,0.49146 -0.0078,0.6347 -0.05795,0.14323 -0.101842,-0.0252 -0.09753,-0.37427 z m 86.530326,0 c 0.004,-0.34908 0.0517,-0.46628 0.10537,-0.26043 0.0536,0.20585 0.0501,0.49146 -0.008,0.6347 -0.058,0.14323 -0.10184,-0.0252 -0.0975,-0.37427 z m 11.42454,-2.11565 c 0.004,-0.34909 0.0517,-0.46628 0.10537,-0.26043 0.0536,0.20584 0.0501,0.49146 -0.008,0.63469 -0.058,0.14324 -0.10184,-0.0252 -0.0975,-0.37426 z m 13.55657,-0.52892 c 0,-0.52362 0.0413,-0.73783 0.0917,-0.47602 0.0504,0.26181 0.0504,0.69023 0,0.95204 -0.0504,0.26182 -0.0917,0.0476 -0.0917,-0.47602 z m -89.508616,-0.10578 c 0.0043,-0.34908 0.05173,-0.46628 0.105369,-0.26043 0.05364,0.20585 0.05011,0.49146 -0.0078,0.6347 -0.05795,0.14323 -0.101842,-0.0252 -0.09753,-0.37427 z m 8.462624,-0.21157 c 0.0043,-0.34908 0.05173,-0.46627 0.105368,-0.26043 0.05364,0.20585 0.05011,0.49146 -0.0078,0.6347 -0.05795,0.14324 -0.101841,-0.0252 -0.09753,-0.37427 z m 25.380032,-0.52891 c 0,-0.2909 0.048,-0.40991 0.10671,-0.26446 0.0587,0.14545 0.0587,0.38347 0,0.52892 -0.0587,0.14545 -0.10671,0.0264 -0.10671,-0.26446 z m 8.47046,-0.95205 c 0.004,-0.34908 0.0517,-0.46627 0.10537,-0.26043 0.0536,0.20585 0.0501,0.49146 -0.008,0.6347 -0.058,0.14324 -0.10184,-0.0252 -0.0975,-0.37427 z M 98.493704,204.04797 c 0.143514,-0.14459 0.314226,-0.2096 0.379365,-0.14446 0.06514,0.0651 -0.05228,0.18344 -0.26093,0.26289 -0.301524,0.11481 -0.325824,0.0905 -0.118435,-0.11843 z m 4.922426,0.0263 c -0.19068,-0.12323 -0.21678,-0.20638 -0.0654,-0.20833 0.13859,-0.002 0.31081,0.092 0.38273,0.20833 0.16233,0.26266 0.0891,0.26266 -0.31735,0 z m 37.74436,-2.16855 -0.40303,-0.47602 0.47602,0.40303 c 0.26181,0.22167 0.47602,0.43588 0.47602,0.47602 0,0.16931 -0.17026,0.0443 -0.54901,-0.40303 z m -80.374825,-0.5818 c 0.210612,-0.23272 0.430532,-0.42313 0.488713,-0.42313 0.05818,0 -0.06654,0.19041 -0.277147,0.42313 -0.210611,0.23272 -0.430532,0.42313 -0.488712,0.42313 -0.05818,0 0.06654,-0.19041 0.277146,-0.42313 z m 2.221439,-2.19554 c 0,-0.0439 0.166608,-0.21054 0.37024,-0.37024 0.335556,-0.26316 0.343039,-0.25567 0.07988,0.0799 -0.276383,0.35242 -0.450119,0.46449 -0.450119,0.29036 z m 72.751576,-2.40601 c -0.26316,-0.33556 -0.25568,-0.34304 0.0799,-0.0799 0.35241,0.27638 0.46448,0.45012 0.29036,0.45012 -0.0439,0 -0.21054,-0.16661 -0.37024,-0.37024 z m 15.55696,-3.91397 -0.40304,-0.47602 0.47603,0.40303 c 0.44734,0.37875 0.57233,0.54902 0.40303,0.54902 -0.0402,0 -0.25436,-0.21421 -0.47602,-0.47603 z m -53.876237,-8.76141 c 0.145451,-0.0587 0.383463,-0.0587 0.528914,0 0.145451,0.0587 0.02645,0.10671 -0.264457,0.10671 -0.290903,0 -0.409908,-0.048 -0.264457,-0.10671 z m 7.629587,-13.54461 c 0.15272,-0.0611 0.3352,-0.0536 0.4055,0.0167 0.0703,0.0703 -0.0547,0.1203 -0.27768,0.11112 -0.24646,-0.0101 -0.2966,-0.0603 -0.12782,-0.12782 z m -4.56189,-0.21287 c 0.20364,-0.0532 0.53685,-0.0532 0.74048,0 0.20364,0.0532 0.037,0.0968 -0.37024,0.0968 -0.40726,0 -0.57387,-0.0435 -0.37024,-0.0968 z"
           id="path2642" /><path
           style="fill:#4882a3;fill-opacity:1;stroke-width:0.211566"
           d="m 93.1552,306.74869 c -0.465444,-0.0453 -2.036319,-0.27229 -3.490832,-0.50438 -10.668887,-1.70237 -21.161433,-6.18617 -29.943724,-12.79591 -12.148889,-9.14352 -21.286763,-22.72124 -25.055806,-37.22973 -0.593243,-2.28362 -1.31719,-6.73693 -1.587239,-9.76378 l -0.135539,-1.51918 0.910519,-0.11796 c 1.170355,-0.15163 10.918675,-0.97244 11.527259,-0.9706 0.404467,0.001 0.504726,0.20431 0.810134,1.64103 2.553169,12.01083 6.080748,20.3083 11.713895,27.5531 1.893491,2.43523 6.47437,7.00485 8.800196,8.77857 7.473962,5.69979 16.167315,9.42764 26.934152,11.5498 l 2.387103,0.4705 -0.128905,1.18544 c -0.0709,0.65199 -0.338359,3.56555 -0.594362,6.47458 -0.520083,5.90989 -0.322225,5.42618 -2.146851,5.24852 z m 13.64598,-0.26324 c 0,-0.10894 -0.23801,-2.83777 -0.52891,-6.06408 -0.29091,-3.2263 -0.52892,-6.08669 -0.52892,-6.35642 0,-0.55214 -0.12622,-0.51221 3.22327,-1.01966 4.71763,-0.71471 10.41706,-2.37721 14.59249,-4.25655 16.01624,-7.20884 28.27935,-22.93347 31.25252,-40.07418 1.00671,-5.8038 1.0932,-10.60213 0.32414,-17.98308 l -0.14329,-1.37517 6.48857,-1.13299 c 3.56872,-0.62314 6.54746,-1.0741 6.61942,-1.00214 0.072,0.072 0.25075,1.05783 0.3973,2.19081 1.76463,13.64207 -0.26261,26.85174 -5.93313,38.66082 -3.56205,7.41811 -7.55081,13.04012 -13.44484,18.95005 -1.92298,1.92817 -4.22268,4.0908 -5.11045,4.80585 -1.93034,1.5548 -6.02237,4.43787 -8.22368,5.79406 -7.7349,4.76533 -17.17536,7.97796 -25.9921,8.84524 -2.69586,0.26518 -2.99239,0.26691 -2.99239,0.0174 z M 98.550122,281.79531 C 90.669924,281.2752 83.334632,278.827 76.86465,274.55765 76.050122,274.02016 74.288839,272.66313 72.950687,271.54202 64.644783,264.5833 59.30774,254.66339 57.94039,243.64253 c -0.319657,-2.57644 -0.26699,-8.20582 0.100999,-10.79522 1.070951,-7.53588 3.844238,-14.26615 8.325575,-20.20468 7.480118,-9.91244 18.772458,-16.09714 31.146694,-17.05875 7.913652,-0.61498 15.649072,0.88052 22.510372,4.35196 6.43647,3.2565 11.27229,7.28591 15.49737,12.91308 4.02408,5.35946 6.7283,11.64317 8.01451,18.62304 0.48952,2.65652 0.56011,11.12814 0.1137,13.64598 -2.09788,11.83247 -8.06837,21.60106 -17.42877,28.51599 -5.29251,3.90981 -12.42914,6.78595 -19.20809,7.74107 -2.39052,0.33682 -6.57723,0.54476 -8.462628,0.42031 z m 4.477388,-8.66759 c 0.38172,-0.2323 2.87432,-4.58687 4.17337,-7.29088 1.22055,-2.5406 3.1402,-7.31255 3.71763,-9.24147 l 0.1425,-0.47602 h -10.39523 c -9.801897,0 -10.388828,0.0211 -10.283086,0.37024 1.763347,5.82168 3.70316,10.36575 6.179656,14.47603 l 1.367047,2.26892 1.103734,0.0867 c 1.123779,0.0883 3.739629,-0.0385 3.994379,-0.1935 z m 13.53901,-3.49837 c 5.4377,-2.82901 10.49631,-7.40839 13.57998,-12.2935 l 0.7679,-1.2165 h -5.56276 -5.56276 l -0.89754,3.01481 c -0.88791,2.98246 -2.24974,6.55513 -3.70964,9.73202 -0.41441,0.9018 -0.65141,1.63963 -0.52667,1.63963 0.12475,0 0.98492,-0.39441 1.91149,-0.87646 z m -31.151684,-1.99993 c -1.075441,-2.50488 -3.07186,-8.27902 -3.595597,-10.39935 l -0.274356,-1.11072 h -5.357086 -5.357089 l 0.790259,1.2165 c 3.263239,5.02334 7.798452,9.18459 13.17039,12.08439 0.868855,0.46901 1.607873,0.82462 1.642258,0.79023 0.03439,-0.0344 -0.424064,-1.19586 -1.018779,-2.58105 z m -5.513281,-21.40076 c -0.477975,-4.30541 -0.400533,-11.65653 0.166367,-15.79252 l 0.133509,-0.97405 h -6.448875 -6.448874 l -0.347228,1.58022 c -0.932325,4.24299 -0.993262,10.20645 -0.147068,14.39298 0.235191,1.16361 0.427938,2.13946 0.428325,2.16855 4.23e-4,0.0291 2.885584,0.0529 6.411544,0.0529 h 6.410841 z m 33.228095,-0.95204 c 0.41152,-3.73753 0.49294,-9.22943 0.18743,-12.64105 l -0.27471,-3.0677 -12.19333,-0.0546 -12.19332,-0.0546 -0.134885,1.11243 c -0.594593,4.90366 -0.693155,9.06693 -0.32488,13.72318 0.12326,1.55844 0.263079,2.95254 0.310707,3.09799 0.06794,0.20749 2.701261,0.26446 12.223768,0.26446 h 12.13717 z m 21.59179,1.26939 c 1.12056,-5.18097 1.14812,-10.41384 0.0813,-15.44429 l -0.34771,-1.63963 h -6.45319 -6.45319 l 0.13338,1.57781 c 0.32982,3.90176 0.38389,7.71003 0.16083,11.32769 -0.13272,2.15268 -0.29745,4.22338 -0.36605,4.60155 l -0.12472,0.68759 h 6.56454 6.56455 z M 82.548486,218.40779 c 1.070848,-3.44828 2.06242,-6.08842 3.416736,-9.09732 0.6154,-1.36724 1.050825,-2.4859 0.967612,-2.4859 -0.400792,0 -4.011451,2.00718 -5.738467,3.19004 -2.198376,1.50569 -5.866915,4.91332 -7.498419,6.96511 -1.230077,1.54695 -2.649352,3.61384 -2.649352,3.85825 0,0.0888 2.406838,0.1615 5.348529,0.1615 h 5.348528 z m 28.695574,2.52998 c 0,-0.0339 -0.41634,-1.2954 -0.9252,-2.80325 -1.60185,-4.74658 -3.27942,-8.44959 -5.57902,-12.31488 l -1.16428,-1.95699 h -2.48413 -2.48414 l -1.137451,1.8512 c -2.536805,4.12865 -4.249136,7.738 -6.022193,12.69394 l -0.92721,2.59168 h 10.361814 c 5.69899,0 10.36181,-0.0278 10.36181,-0.0617 z m 19.46403,-0.0557 c 0,-0.0646 -0.39755,-0.70719 -0.88344,-1.42806 -3.37893,-5.01296 -8.29701,-9.35523 -13.69241,-12.08929 -1.36025,-0.68929 -1.39997,-0.99308 0.45495,3.4796 1.44829,3.49218 2.17909,5.59804 2.91844,8.40973 l 0.45897,1.74542 h 5.37175 c 2.95446,0 5.37174,-0.0528 5.37174,-0.1174 z m -92.031028,12.48127 c -2.850846,-0.26736 -5.379944,-0.49288 -5.620217,-0.50115 -0.430521,-0.0148 -0.43277,-0.045 -0.155028,-2.07782 1.175315,-8.6023 4.049214,-17.67616 7.812339,-24.66616 3.161158,-5.87185 6.810285,-10.75675 11.483682,-15.37262 10.10361,-9.97924 23.94612,-17.2043 37.254964,-19.44512 3.855288,-0.64911 6.400122,-0.85358 10.700208,-0.85972 7.10182,-0.0101 13.03303,0.8776 20.6115,3.08498 2.57345,0.74956 8.47809,2.85909 8.84838,3.16122 0.0632,0.0516 -5.4108,11.95677 -5.57423,12.1231 -0.0402,0.0409 -1.0551,-0.30677 -2.2554,-0.77257 -7.86044,-3.05039 -14.5413,-4.24274 -22.386875,-3.99542 -6.198442,0.1954 -12.119014,1.30936 -17.226762,3.24124 -11.084382,4.19239 -20.586376,11.65141 -27.184318,21.33958 -4.646042,6.82207 -7.783593,15.15462 -8.683293,23.06065 -0.119174,1.04725 -0.217464,1.97549 -0.21842,2.06276 -0.0026,0.23972 -1.706183,0.15164 -7.40653,-0.38295 z M 151.45196,217.77309 c -1.96986,-4.77648 -5.37701,-10.3184 -8.77222,-14.2685 -2.14554,-2.49621 -6.06102,-6.2387 -8.63392,-8.25248 l -1.63406,-1.27896 3.72282,-5.36907 c 2.04756,-2.95299 3.79034,-5.44352 3.87285,-5.53451 0.19196,-0.2117 3.43417,2.27892 6.5857,5.05904 6.08059,5.36398 11.46537,12.45527 15.29661,20.1443 1.58768,3.18636 3.22067,6.96158 3.07072,7.099 -0.0867,0.0794 -12.40998,4.56973 -12.54133,4.56973 -0.0401,0 -0.4753,-0.97585 -0.96717,-2.16855 z"
           id="path2640" /></g></g><g
       id="g2559"
       style="fill:#000000;fill-opacity:0"><path
         style="fill:#000000;fill-opacity:0;stroke-width:0.211566"
         d="m 94.970211,305.29072 c 0.01015,-0.24646 0.06028,-0.29659 0.127819,-0.12782 0.06112,0.15272 0.0536,0.3352 -0.01669,0.4055 -0.0703,0.0703 -0.120305,-0.0547 -0.111119,-0.27768 z m 0.423131,-4.86601 c 0.01015,-0.24646 0.06028,-0.29659 0.127819,-0.12782 0.06111,0.15272 0.0536,0.3352 -0.01669,0.4055 -0.0703,0.0703 -0.120305,-0.0546 -0.111119,-0.27768 z m -42.980531,-13.15233 -0.5129,-0.5818 0.581805,0.5129 c 0.543785,0.47938 0.678827,0.65071 0.512901,0.65071 -0.0379,0 -0.299708,-0.26181 -0.581806,-0.58181 z m 45.251381,-5.48655 c 0.152722,-0.0611 0.3352,-0.0536 0.405501,0.0167 0.0703,0.0703 -0.05466,0.12031 -0.27768,0.11112 -0.246463,-0.0102 -0.296594,-0.0603 -0.127821,-0.12782 z m 6.135398,0 c 0.15273,-0.0611 0.3352,-0.0536 0.4055,0.0167 0.0703,0.0703 -0.0546,0.12031 -0.27767,0.11112 -0.24647,-0.0102 -0.2966,-0.0603 -0.12783,-0.12782 z m 35.37112,-3.94142 c 0,-0.0364 0.30942,-0.34583 0.68759,-0.68759 l 0.68759,-0.62139 -0.62139,0.68759 c -0.57922,0.64093 -0.75379,0.78483 -0.75379,0.62139 z m 2.53879,-2.76403 c 0,-0.0439 0.16661,-0.21054 0.37024,-0.37024 0.33556,-0.26316 0.34304,-0.25568 0.0799,0.0799 -0.27638,0.35242 -0.45012,0.46449 -0.45012,0.29037 z m -82.537564,-0.50193 c -0.26316,-0.33556 -0.255677,-0.34304 0.07988,-0.0799 0.352415,0.27638 0.464488,0.45012 0.290361,0.45012 -0.04393,0 -0.210539,-0.16661 -0.37024,-0.37024 z m 17.375366,-11.16009 c -0.5139,-0.52362 -0.886761,-0.95204 -0.82858,-0.95204 0.05818,0 0.526246,0.42842 1.040145,0.95204 0.513899,0.52363 0.88676,0.95205 0.82858,0.95205 -0.05818,0 -0.526246,-0.42842 -1.040145,-0.95205 z m 50.352608,-2.08975 c 0,-0.0439 0.16661,-0.21054 0.37024,-0.37024 0.33556,-0.26316 0.34304,-0.25567 0.0799,0.0799 -0.27638,0.35242 -0.45012,0.46449 -0.45012,0.29036 z m -52.706817,-0.50192 c -0.26316,-0.33556 -0.255677,-0.34304 0.07988,-0.0799 0.352415,0.27638 0.464488,0.45012 0.290361,0.45012 -0.04393,0 -0.21054,-0.16661 -0.37024,-0.37024 z M 57.523102,240.97478 c 0.01015,-0.24646 0.06028,-0.29659 0.127819,-0.12782 0.06112,0.15272 0.0536,0.3352 -0.01669,0.4055 -0.0703,0.0703 -0.120305,-0.0547 -0.111119,-0.27768 z m 86.530328,0 c 0.0102,-0.24646 0.0603,-0.29659 0.12782,-0.12782 0.0611,0.15272 0.0536,0.3352 -0.0167,0.4055 -0.0703,0.0703 -0.1203,-0.0547 -0.11112,-0.27768 z m 11.47897,-1.35754 c 0,-0.87271 0.0373,-1.22973 0.083,-0.79337 0.0457,0.43635 0.0457,1.15038 0,1.58674 -0.0456,0.43635 -0.083,0.0793 -0.083,-0.79337 z m -89.335109,0.93441 c 0.01015,-0.24646 0.06028,-0.29659 0.127819,-0.12782 0.06112,0.15272 0.0536,0.3352 -0.01669,0.4055 -0.0703,0.0703 -0.120305,-0.0547 -0.111119,-0.27768 z m 21.815797,-0.4055 c 0.0043,-0.34908 0.05173,-0.46628 0.105368,-0.26043 0.05364,0.20585 0.05011,0.49146 -0.0078,0.6347 -0.05795,0.14323 -0.101841,-0.0252 -0.09753,-0.37427 z m 25.380032,-1.16361 c 0,-0.2909 0.048,-0.40991 0.10671,-0.26446 0.0587,0.14545 0.0587,0.38347 0,0.52892 -0.0587,0.14545 -0.10671,0.0264 -0.10671,-0.26446 z m -25.372194,-1.05783 c 0,-0.40726 0.04354,-0.57387 0.09676,-0.37024 0.05321,0.20363 0.05321,0.53685 0,0.74048 -0.05322,0.20363 -0.09676,0.037 -0.09676,-0.37024 z m 25.372194,-0.84626 c 0,-0.2909 0.048,-0.40991 0.10671,-0.26446 0.0587,0.14545 0.0587,0.38347 0,0.52892 -0.0587,0.14545 -0.10671,0.0264 -0.10671,-0.26446 z m -47.179128,-0.42313 c 0,-0.2909 0.04802,-0.40991 0.106712,-0.26446 0.05869,0.14545 0.05869,0.38346 0,0.52892 -0.05869,0.14545 -0.106712,0.0264 -0.106712,-0.26446 z m -8.69089,-0.33498 c 0.01015,-0.24646 0.06028,-0.29659 0.127819,-0.12782 0.06112,0.15272 0.0536,0.3352 -0.01669,0.4055 -0.0703,0.0703 -0.120305,-0.0547 -0.111119,-0.27768 z m 86.530328,0 c 0.0102,-0.24646 0.0603,-0.29659 0.12782,-0.12782 0.0611,0.15272 0.0536,0.3352 -0.0167,0.4055 -0.0703,0.0703 -0.1203,-0.0547 -0.11112,-0.27768 z M 35.252344,233.12575 c 0.152724,-0.0611 0.335199,-0.0536 0.405501,0.0167 0.0703,0.0703 -0.05466,0.1203 -0.27768,0.11112 -0.246462,-0.0102 -0.296594,-0.0603 -0.127821,-0.12782 z m 38.373442,-12.28427 c 1.476736,-0.0363 3.952054,-0.0364 5.500705,-2.2e-4 1.548654,0.0362 0.340416,0.0659 -2.684972,0.066 -3.025388,1.2e-4 -4.292467,-0.0295 -2.815733,-0.0658 z m 22.10641,-4.3e-4 c 2.81368,-0.0333 7.478704,-0.0333 10.366714,-7e-5 2.88801,0.0333 0.58591,0.0605 -5.11578,0.0606 -5.701696,4e-5 -8.064615,-0.0272 -5.250934,-0.0605 z m 26.765244,4.3e-4 c 1.47673,-0.0363 3.95205,-0.0364 5.5007,-2.2e-4 1.54866,0.0362 0.34042,0.0659 -2.68497,0.066 -3.02539,1.2e-4 -4.29247,-0.0295 -2.81573,-0.0658 z m -47.431098,-5.4226 c 0,-0.0439 0.166608,-0.21054 0.37024,-0.37024 0.335556,-0.26316 0.343039,-0.25567 0.07988,0.0799 -0.276383,0.35242 -0.450119,0.46449 -0.450119,0.29036 z m 49.278768,-2.19445 -0.5129,-0.5818 0.58181,0.5129 c 0.54378,0.47938 0.67882,0.65071 0.5129,0.65071 -0.0379,0 -0.29971,-0.26182 -0.58181,-0.58181 z M 57.717964,204.8406 c 0,-0.0439 0.166608,-0.21054 0.37024,-0.37024 0.335556,-0.26316 0.343039,-0.25567 0.07988,0.0799 -0.276383,0.35242 -0.450119,0.46449 -0.450119,0.29036 z m 42.273449,-0.9109 c 0.152727,-0.0611 0.335197,-0.0536 0.405497,0.0167 0.0703,0.0703 -0.0547,0.1203 -0.27768,0.11112 -0.246459,-0.0102 -0.296589,-0.0603 -0.127817,-0.12782 z m 1.679297,0.004 c 0.14546,-0.0587 0.38347,-0.0587 0.52892,0 0.14545,0.0587 0.0264,0.10671 -0.26446,0.10671 -0.2909,0 -0.40991,-0.048 -0.26446,-0.10671 z M 51.899911,190.74559 c 0.573057,-0.58181 1.089525,-1.05783 1.147705,-1.05783 0.05818,0 -0.363082,0.47602 -0.93614,1.05783 -0.573057,0.5818 -1.089524,1.05783 -1.147705,1.05783 -0.05818,0 0.363083,-0.47603 0.93614,-1.05783 z m 3.173484,-2.96192 c 0.210611,-0.23272 0.430531,-0.42313 0.488712,-0.42313 0.05818,0 -0.06653,0.19041 -0.277147,0.42313 -0.210611,0.23272 -0.430531,0.42313 -0.488712,0.42313 -0.05818,0 0.06654,-0.19041 0.277147,-0.42313 z m 43.846967,-3.73673 c 0.145452,-0.0587 0.383463,-0.0587 0.528914,0 0.145452,0.0587 0.02645,0.10671 -0.264457,0.10671 -0.290902,0 -0.409908,-0.048 -0.264457,-0.10671 z m -1.890867,-13.75617 c 0.152723,-0.0611 0.3352,-0.0536 0.405501,0.0167 0.0703,0.0703 -0.05466,0.12031 -0.27768,0.11112 -0.246463,-0.0101 -0.296593,-0.0603 -0.127821,-0.12782 z m 5.275915,0.004 c 0.14545,-0.0587 0.38346,-0.0587 0.52892,0 0.14545,0.0587 0.0264,0.10671 -0.26446,0.10671 -0.2909,0 -0.40991,-0.048 -0.26446,-0.10671 z"
         id="path2567" /><path
         style="fill:#000000;fill-opacity:0;stroke-width:0.211566"
         d="m 109.3003,306.539 c 0.15272,-0.0611 0.3352,-0.0536 0.4055,0.0167 0.0703,0.0703 -0.0547,0.1203 -0.27768,0.11111 -0.24646,-0.0102 -0.29659,-0.0603 -0.12782,-0.12782 z m -2.90555,-3.15237 c 0.0102,-0.24646 0.0603,-0.29659 0.12782,-0.12782 0.0611,0.15272 0.0536,0.3352 -0.0167,0.4055 -0.0703,0.0703 -0.12031,-0.0547 -0.11112,-0.27768 z m -0.86296,-9.71439 c 0,-0.17454 0.0922,-0.31735 0.20492,-0.31735 0.11271,0 0.15013,0.14281 0.0832,0.31735 -0.067,0.17454 -0.15919,0.31735 -0.20493,0.31735 -0.0457,0 -0.0831,-0.14281 -0.0831,-0.31735 z m -48.898641,-2.59168 c -0.26316,-0.33555 -0.255677,-0.34303 0.07988,-0.0799 0.203632,0.1597 0.37024,0.3263 0.37024,0.37024 0,0.17412 -0.173736,0.062 -0.450119,-0.29037 z M 125.1016,263.31258 c 0.4545,-0.46544 0.87396,-0.84626 0.93214,-0.84626 0.0582,0 -0.26608,0.38082 -0.72057,0.84626 -0.45449,0.46545 -0.87396,0.84626 -0.93214,0.84626 -0.0582,0 0.26608,-0.38081 0.72057,-0.84626 z M 32.981493,247.11019 c 0.01015,-0.24647 0.06028,-0.2966 0.127821,-0.12783 0.06112,0.15273 0.0536,0.3352 -0.0167,0.40551 -0.0703,0.0703 -0.120305,-0.0547 -0.111118,-0.27768 z m 136.069057,-4.53103 c 0,-0.40727 0.0435,-0.57388 0.0968,-0.37024 0.0532,0.20363 0.0532,0.53684 0,0.74047 -0.0532,0.20364 -0.0968,0.037 -0.0968,-0.37023 z m -47.18697,-0.31735 c 0.004,-0.34909 0.0517,-0.46628 0.10537,-0.26043 0.0536,0.20584 0.0501,0.49146 -0.008,0.63469 -0.058,0.14324 -0.10184,-0.0252 -0.0975,-0.37426 z m 33.61439,-0.8639 c 0.0102,-0.24646 0.0603,-0.29659 0.12782,-0.12782 0.0611,0.15273 0.0536,0.3352 -0.0167,0.4055 -0.0703,0.0703 -0.1203,-0.0547 -0.11111,-0.27768 z M 88.005247,241.0982 c 0,-0.29091 0.04802,-0.40991 0.106712,-0.26446 0.05869,0.14545 0.05869,0.38346 0,0.52891 -0.05869,0.14545 -0.106712,0.0265 -0.106712,-0.26445 z m -30.445495,-1.16361 c 0.0023,-0.46545 0.04567,-0.63095 0.09628,-0.36778 0.0506,0.26317 0.04868,0.64399 -0.0043,0.84626 -0.05295,0.20228 -0.09436,-0.013 -0.09201,-0.47848 z m 86.530328,0 c 0.002,-0.46545 0.0457,-0.63095 0.0963,-0.36778 0.0506,0.26317 0.0487,0.64399 -0.004,0.84626 -0.053,0.20228 -0.0944,-0.013 -0.092,-0.47848 z m -30.69696,-0.10579 c 0,-0.2909 0.048,-0.40991 0.10671,-0.26445 0.0587,0.14545 0.0587,0.38346 0,0.52891 -0.0587,0.14545 -0.10671,0.0265 -0.10671,-0.26446 z m -55.833368,-2.433 c 0.0023,-0.46545 0.04567,-0.63094 0.09628,-0.36777 0.0506,0.26316 0.04868,0.64398 -0.0043,0.84626 -0.05295,0.20227 -0.09436,-0.0131 -0.09201,-0.47849 z m 86.530328,0 c 0.002,-0.46545 0.0457,-0.63094 0.0963,-0.36777 0.0506,0.26316 0.0487,0.64398 -0.004,0.84626 -0.053,0.20227 -0.0944,-0.0131 -0.092,-0.47849 z m 11.41243,0.21156 c 0.004,-0.34908 0.0517,-0.46627 0.10537,-0.26043 0.0536,0.20585 0.0501,0.49146 -0.008,0.6347 -0.058,0.14324 -0.10184,-0.0252 -0.0975,-0.37427 z M 88.013088,236.7611 c 0.0043,-0.34908 0.05173,-0.46628 0.105368,-0.26043 0.05364,0.20585 0.05011,0.49146 -0.0078,0.6347 -0.05795,0.14323 -0.101841,-0.0252 -0.09753,-0.37427 z m 25.387872,-0.6347 c 0.004,-0.34908 0.0517,-0.46627 0.10537,-0.26043 0.0536,0.20585 0.0501,0.49146 -0.008,0.6347 -0.058,0.14324 -0.10184,-0.0252 -0.0975,-0.37427 z m -33.850496,-1.26939 c 0.0043,-0.34908 0.05173,-0.46628 0.105369,-0.26043 0.05364,0.20585 0.05011,0.49146 -0.0078,0.6347 -0.05795,0.14323 -0.101842,-0.0252 -0.09753,-0.37427 z m 88.498956,-7.72214 c -0.0719,-0.11636 -0.0299,-0.21157 0.0933,-0.21157 0.12323,0 0.22406,0.0952 0.22406,0.21157 0,0.11636 -0.042,0.21156 -0.0933,0.21156 -0.0513,0 -0.15214,-0.0952 -0.22405,-0.21156 z M 74.431646,216.05358 c 0,-0.0439 0.166608,-0.21054 0.370239,-0.37024 0.335556,-0.26316 0.343039,-0.25568 0.07988,0.0799 -0.276383,0.35241 -0.450118,0.46449 -0.450118,0.29036 z M 70.4119,207.80252 c 0,-0.0439 0.166608,-0.21054 0.370239,-0.37024 0.335556,-0.26316 0.343039,-0.25568 0.07988,0.0799 -0.276383,0.35242 -0.450118,0.46449 -0.450118,0.29036 z m 60.48077,-0.29036 c -0.26316,-0.33556 -0.25568,-0.34304 0.0799,-0.0799 0.20363,0.1597 0.37024,0.32631 0.37024,0.37024 0,0.17413 -0.17374,0.0621 -0.45012,-0.29036 z M 99.131928,203.9341 c 0.145451,-0.0587 0.383462,-0.0587 0.528914,0 0.145451,0.0587 0.02644,0.10672 -0.264457,0.10672 -0.290903,0 -0.409909,-0.048 -0.264457,-0.10672 z m 3.385052,0 c 0.14545,-0.0587 0.38346,-0.0587 0.52891,0 0.14545,0.0587 0.0264,0.10672 -0.26446,0.10672 -0.2909,0 -0.4099,-0.048 -0.26445,-0.10672 z m 37.1747,-3.50939 -1.04988,-1.11072 1.11072,1.04988 c 1.0321,0.97556 1.20774,1.17156 1.04988,1.17156 -0.0335,0 -0.53329,-0.49982 -1.11072,-1.11072 z m -78.377101,0.39615 c 0,-0.0439 0.166608,-0.21054 0.37024,-0.37024 0.335556,-0.26316 0.343039,-0.25568 0.07988,0.0799 -0.276383,0.35241 -0.450119,0.46448 -0.450119,0.29036 z m 1.163611,-1.18952 c 0.210612,-0.23272 0.430532,-0.42313 0.488712,-0.42313 0.05818,0 -0.06653,0.19041 -0.277146,0.42313 -0.210612,0.23272 -0.430532,0.42313 -0.488713,0.42313 -0.05818,0 0.06654,-0.19041 0.277147,-0.42313 z m 73.91518,-2.27433 c -0.26316,-0.33555 -0.25567,-0.34304 0.0799,-0.0799 0.35242,0.27639 0.46449,0.45012 0.29036,0.45012 -0.0439,0 -0.21053,-0.16661 -0.37024,-0.37024 z m -38.940744,-1.88994 c 0.152723,-0.0611 0.3352,-0.0536 0.405501,0.0167 0.0703,0.0703 -0.05465,0.1203 -0.277679,0.11112 -0.246464,-0.0102 -0.296594,-0.0603 -0.127822,-0.12782 z m 6.558534,0 c 0.15272,-0.0611 0.3352,-0.0536 0.4055,0.0167 0.0703,0.0703 -0.0547,0.1203 -0.27768,0.11112 -0.24646,-0.0102 -0.29659,-0.0603 -0.12782,-0.12782 z m -5.712272,-11.42454 c 0.152723,-0.0611 0.335201,-0.0536 0.405502,0.0167 0.0703,0.0703 -0.05466,0.1203 -0.27768,0.11111 -0.246463,-0.0102 -0.296594,-0.0603 -0.127822,-0.12782 z M 98.069382,170.2826 c 0.375578,-0.0467 1.042009,-0.0475 1.480959,-0.002 0.438948,0.0458 0.131657,0.084 -0.68287,0.085 -0.814528,9.3e-4 -1.173669,-0.0365 -0.798089,-0.0833 z m 3.614558,0.008 c 0.15272,-0.0611 0.3352,-0.0536 0.4055,0.0167 0.0703,0.0703 -0.0547,0.12031 -0.27768,0.11112 -0.24646,-0.0101 -0.29659,-0.0603 -0.12782,-0.12782 z"
         id="path2565" /><path
         style="fill:#000000;fill-opacity:0;stroke-width:0.211566"
         d="m 108.6656,306.539 c 0.15272,-0.0611 0.3352,-0.0536 0.4055,0.0167 0.0703,0.0703 -0.0546,0.1203 -0.27768,0.11111 -0.24646,-0.0102 -0.29659,-0.0603 -0.12782,-0.12782 z m 36.85208,-16.01434 c 0,-0.0439 0.16661,-0.21054 0.37024,-0.37024 0.33556,-0.26316 0.34304,-0.25567 0.0799,0.0799 -0.27638,0.35242 -0.45012,0.46449 -0.45012,0.29036 z m 3.59662,-3.41095 c 0.74962,-0.75635 1.41055,-1.37518 1.46873,-1.37518 0.0582,0 -0.50754,0.61883 -1.25717,1.37518 -0.74962,0.75635 -1.41055,1.37518 -1.46873,1.37518 -0.0582,0 0.50754,-0.61883 1.25717,-1.37518 z m -50.295694,-5.32997 c 0.205846,-0.0536 0.49146,-0.0501 0.634696,0.008 0.143237,0.058 -0.02518,0.10184 -0.374266,0.0975 -0.349083,-0.004 -0.466277,-0.0517 -0.26043,-0.10537 z m 3.596614,0 c 0.20585,-0.0536 0.49146,-0.0501 0.6347,0.008 0.14323,0.058 -0.0252,0.10184 -0.37427,0.0975 -0.34908,-0.004 -0.46628,-0.0517 -0.26043,-0.10537 z m -2.01143,-8.46564 c 0.26317,-0.0506 0.64398,-0.0487 0.84626,0.004 0.20228,0.053 -0.0131,0.0944 -0.47849,0.092 -0.46544,-0.002 -0.63094,-0.0457 -0.36777,-0.0963 z m -31.711402,-5.72132 c -0.26316,-0.33555 -0.255677,-0.34303 0.07988,-0.0799 0.352416,0.27638 0.464488,0.45011 0.290361,0.45011 -0.04393,0 -0.210539,-0.1666 -0.370239,-0.37024 z m 55.034042,-2.88312 c 0,-0.0439 0.16661,-0.21054 0.37024,-0.37024 0.33555,-0.26316 0.34304,-0.25567 0.0799,0.0799 -0.27639,0.35242 -0.45012,0.46449 -0.45012,0.29036 z m -33.427365,-8.43563 c 0,-0.0873 4.665021,-0.15868 10.366715,-0.15868 5.70169,0 10.36671,0.0714 10.36671,0.15868 0,0.0873 -4.66502,0.15867 -10.36671,0.15867 -5.701694,0 -10.366715,-0.0714 -10.366715,-0.15867 z m -16.884845,-0.1051 c 1.476737,-0.0363 3.952054,-0.0364 5.500706,-2.1e-4 1.548653,0.0362 0.340415,0.0659 -2.684973,0.066 -3.025388,1.2e-4 -4.292467,-0.0295 -2.815733,-0.0658 z m 49.10835,-2.1e-4 c 1.60693,-0.036 4.17745,-0.0359 5.71228,2e-4 1.53482,0.0361 0.22007,0.0655 -2.92168,0.0654 -3.14175,-1.1e-4 -4.39752,-0.0297 -2.7906,-0.0656 z m -89.541077,-9.69723 c 0.01015,-0.24646 0.06028,-0.2966 0.127821,-0.12782 0.06112,0.15272 0.0536,0.3352 -0.0167,0.4055 -0.0703,0.0703 -0.120305,-0.0547 -0.111118,-0.27768 z m 46.561131,-3.4732 c 0,-0.29091 0.04802,-0.40991 0.106711,-0.26446 0.05869,0.14545 0.05869,0.38346 0,0.52891 -0.05869,0.14545 -0.106711,0.0265 -0.106711,-0.26445 z m 8.470464,-0.95205 c 0.0043,-0.34908 0.05173,-0.46628 0.105368,-0.26043 0.05364,0.20585 0.05011,0.49146 -0.0078,0.6347 -0.05795,0.14323 -0.101841,-0.0252 -0.09753,-0.37427 z m 67.464882,-0.0176 c 0.0102,-0.24647 0.0603,-0.2966 0.12782,-0.12782 0.0611,0.15272 0.0536,0.3352 -0.0167,0.4055 -0.0703,0.0703 -0.1203,-0.0547 -0.11111,-0.27768 z m 13.57258,-0.72286 c 0,-0.40726 0.0435,-0.57387 0.0968,-0.37024 0.0532,0.20363 0.0532,0.53685 0,0.74048 -0.0532,0.20363 -0.0968,0.037 -0.0968,-0.37024 z M 121.86358,241.204 c 0.004,-0.34908 0.0517,-0.46628 0.10537,-0.26043 0.0536,0.20584 0.0501,0.49146 -0.008,0.63469 -0.058,0.14324 -0.10184,-0.0252 -0.0975,-0.37426 z m -8.47046,-0.52892 c 0,-0.2909 0.048,-0.4099 0.10671,-0.26445 0.0587,0.14545 0.0587,0.38346 0,0.52891 -0.0587,0.14545 -0.10671,0.0265 -0.10671,-0.26446 z m -55.845476,-2.00987 c 0.0043,-0.34908 0.05173,-0.46628 0.105368,-0.26043 0.05364,0.20585 0.05011,0.49146 -0.0078,0.6347 -0.05795,0.14323 -0.101842,-0.0252 -0.09753,-0.37427 z m 86.530326,0 c 0.004,-0.34908 0.0517,-0.46628 0.10537,-0.26043 0.0536,0.20585 0.0501,0.49146 -0.008,0.6347 -0.058,0.14323 -0.10184,-0.0252 -0.0975,-0.37427 z m 11.42454,-2.11565 c 0.004,-0.34909 0.0517,-0.46628 0.10537,-0.26043 0.0536,0.20584 0.0501,0.49146 -0.008,0.63469 -0.058,0.14324 -0.10184,-0.0252 -0.0975,-0.37426 z m 13.55657,-0.52892 c 0,-0.52362 0.0413,-0.73783 0.0917,-0.47602 0.0504,0.26181 0.0504,0.69023 0,0.95204 -0.0504,0.26182 -0.0917,0.0476 -0.0917,-0.47602 z m -89.508616,-0.10578 c 0.0043,-0.34908 0.05173,-0.46628 0.105369,-0.26043 0.05364,0.20585 0.05011,0.49146 -0.0078,0.6347 -0.05795,0.14323 -0.101842,-0.0252 -0.09753,-0.37427 z m 8.462624,-0.21157 c 0.0043,-0.34908 0.05173,-0.46627 0.105368,-0.26043 0.05364,0.20585 0.05011,0.49146 -0.0078,0.6347 -0.05795,0.14324 -0.101841,-0.0252 -0.09753,-0.37427 z m 25.380032,-0.52891 c 0,-0.2909 0.048,-0.40991 0.10671,-0.26446 0.0587,0.14545 0.0587,0.38347 0,0.52892 -0.0587,0.14545 -0.10671,0.0264 -0.10671,-0.26446 z m 8.47046,-0.95205 c 0.004,-0.34908 0.0517,-0.46627 0.10537,-0.26043 0.0536,0.20585 0.0501,0.49146 -0.008,0.6347 -0.058,0.14324 -0.10184,-0.0252 -0.0975,-0.37427 z M 98.493704,204.04797 c 0.143514,-0.14459 0.314226,-0.2096 0.379365,-0.14446 0.06514,0.0651 -0.05228,0.18344 -0.26093,0.26289 -0.301524,0.11481 -0.325824,0.0905 -0.118435,-0.11843 z m 4.922426,0.0263 c -0.19068,-0.12323 -0.21678,-0.20638 -0.0654,-0.20833 0.13859,-0.002 0.31081,0.092 0.38273,0.20833 0.16233,0.26266 0.0891,0.26266 -0.31735,0 z m 37.74436,-2.16855 -0.40303,-0.47602 0.47602,0.40303 c 0.26181,0.22167 0.47602,0.43588 0.47602,0.47602 0,0.16931 -0.17026,0.0443 -0.54901,-0.40303 z m -80.374825,-0.5818 c 0.210612,-0.23272 0.430532,-0.42313 0.488713,-0.42313 0.05818,0 -0.06654,0.19041 -0.277147,0.42313 -0.210611,0.23272 -0.430532,0.42313 -0.488712,0.42313 -0.05818,0 0.06654,-0.19041 0.277146,-0.42313 z m 2.221439,-2.19554 c 0,-0.0439 0.166608,-0.21054 0.37024,-0.37024 0.335556,-0.26316 0.343039,-0.25567 0.07988,0.0799 -0.276383,0.35242 -0.450119,0.46449 -0.450119,0.29036 z m 72.751576,-2.40601 c -0.26316,-0.33556 -0.25568,-0.34304 0.0799,-0.0799 0.35241,0.27638 0.46448,0.45012 0.29036,0.45012 -0.0439,0 -0.21054,-0.16661 -0.37024,-0.37024 z m 15.55696,-3.91397 -0.40304,-0.47602 0.47603,0.40303 c 0.44734,0.37875 0.57233,0.54902 0.40303,0.54902 -0.0402,0 -0.25436,-0.21421 -0.47602,-0.47603 z m -53.876237,-8.76141 c 0.145451,-0.0587 0.383463,-0.0587 0.528914,0 0.145451,0.0587 0.02645,0.10671 -0.264457,0.10671 -0.290903,0 -0.409908,-0.048 -0.264457,-0.10671 z m 7.629587,-13.54461 c 0.15272,-0.0611 0.3352,-0.0536 0.4055,0.0167 0.0703,0.0703 -0.0547,0.1203 -0.27768,0.11112 -0.24646,-0.0101 -0.2966,-0.0603 -0.12782,-0.12782 z m -4.56189,-0.21287 c 0.20364,-0.0532 0.53685,-0.0532 0.74048,0 0.20364,0.0532 0.037,0.0968 -0.37024,0.0968 -0.40726,0 -0.57387,-0.0435 -0.37024,-0.0968 z"
         id="path2563" /><path
         style="fill:#000000;fill-opacity:0;stroke-width:0.211566"
         d="m 93.1552,306.74869 c -0.465444,-0.0453 -2.036319,-0.27229 -3.490832,-0.50438 -10.668887,-1.70237 -21.161433,-6.18617 -29.943724,-12.79591 -12.148889,-9.14352 -21.286763,-22.72124 -25.055806,-37.22973 -0.593243,-2.28362 -1.31719,-6.73693 -1.587239,-9.76378 l -0.135539,-1.51918 0.910519,-0.11796 c 1.170355,-0.15163 10.918675,-0.97244 11.527259,-0.9706 0.404467,0.001 0.504726,0.20431 0.810134,1.64103 2.553169,12.01083 6.080748,20.3083 11.713895,27.5531 1.893491,2.43523 6.47437,7.00485 8.800196,8.77857 7.473962,5.69979 16.167315,9.42764 26.934152,11.5498 l 2.387103,0.4705 -0.128905,1.18544 c -0.0709,0.65199 -0.338359,3.56555 -0.594362,6.47458 -0.520083,5.90989 -0.322225,5.42618 -2.146851,5.24852 z m 13.64598,-0.26324 c 0,-0.10894 -0.23801,-2.83777 -0.52891,-6.06408 -0.29091,-3.2263 -0.52892,-6.08669 -0.52892,-6.35642 0,-0.55214 -0.12622,-0.51221 3.22327,-1.01966 4.71763,-0.71471 10.41706,-2.37721 14.59249,-4.25655 16.01624,-7.20884 28.27935,-22.93347 31.25252,-40.07418 1.00671,-5.8038 1.0932,-10.60213 0.32414,-17.98308 l -0.14329,-1.37517 6.48857,-1.13299 c 3.56872,-0.62314 6.54746,-1.0741 6.61942,-1.00214 0.072,0.072 0.25075,1.05783 0.3973,2.19081 1.76463,13.64207 -0.26261,26.85174 -5.93313,38.66082 -3.56205,7.41811 -7.55081,13.04012 -13.44484,18.95005 -1.92298,1.92817 -4.22268,4.0908 -5.11045,4.80585 -1.93034,1.5548 -6.02237,4.43787 -8.22368,5.79406 -7.7349,4.76533 -17.17536,7.97796 -25.9921,8.84524 -2.69586,0.26518 -2.99239,0.26691 -2.99239,0.0174 z M 98.550122,281.79531 C 90.669924,281.2752 83.334632,278.827 76.86465,274.55765 76.050122,274.02016 74.288839,272.66313 72.950687,271.54202 64.644783,264.5833 59.30774,254.66339 57.94039,243.64253 c -0.319657,-2.57644 -0.26699,-8.20582 0.100999,-10.79522 1.070951,-7.53588 3.844238,-14.26615 8.325575,-20.20468 7.480118,-9.91244 18.772458,-16.09714 31.146694,-17.05875 7.913652,-0.61498 15.649072,0.88052 22.510372,4.35196 6.43647,3.2565 11.27229,7.28591 15.49737,12.91308 4.02408,5.35946 6.7283,11.64317 8.01451,18.62304 0.48952,2.65652 0.56011,11.12814 0.1137,13.64598 -2.09788,11.83247 -8.06837,21.60106 -17.42877,28.51599 -5.29251,3.90981 -12.42914,6.78595 -19.20809,7.74107 -2.39052,0.33682 -6.57723,0.54476 -8.462628,0.42031 z m 4.477388,-8.66759 c 0.38172,-0.2323 2.87432,-4.58687 4.17337,-7.29088 1.22055,-2.5406 3.1402,-7.31255 3.71763,-9.24147 l 0.1425,-0.47602 h -10.39523 c -9.801897,0 -10.388828,0.0211 -10.283086,0.37024 1.763347,5.82168 3.70316,10.36575 6.179656,14.47603 l 1.367047,2.26892 1.103734,0.0867 c 1.123779,0.0883 3.739629,-0.0385 3.994379,-0.1935 z m 13.53901,-3.49837 c 5.4377,-2.82901 10.49631,-7.40839 13.57998,-12.2935 l 0.7679,-1.2165 h -5.56276 -5.56276 l -0.89754,3.01481 c -0.88791,2.98246 -2.24974,6.55513 -3.70964,9.73202 -0.41441,0.9018 -0.65141,1.63963 -0.52667,1.63963 0.12475,0 0.98492,-0.39441 1.91149,-0.87646 z m -31.151684,-1.99993 c -1.075441,-2.50488 -3.07186,-8.27902 -3.595597,-10.39935 l -0.274356,-1.11072 h -5.357086 -5.357089 l 0.790259,1.2165 c 3.263239,5.02334 7.798452,9.18459 13.17039,12.08439 0.868855,0.46901 1.607873,0.82462 1.642258,0.79023 0.03439,-0.0344 -0.424064,-1.19586 -1.018779,-2.58105 z m -5.513281,-21.40076 c -0.477975,-4.30541 -0.400533,-11.65653 0.166367,-15.79252 l 0.133509,-0.97405 h -6.448875 -6.448874 l -0.347228,1.58022 c -0.932325,4.24299 -0.993262,10.20645 -0.147068,14.39298 0.235191,1.16361 0.427938,2.13946 0.428325,2.16855 4.23e-4,0.0291 2.885584,0.0529 6.411544,0.0529 h 6.410841 z m 33.228095,-0.95204 c 0.41152,-3.73753 0.49294,-9.22943 0.18743,-12.64105 l -0.27471,-3.0677 -12.19333,-0.0546 -12.19332,-0.0546 -0.134885,1.11243 c -0.594593,4.90366 -0.693155,9.06693 -0.32488,13.72318 0.12326,1.55844 0.263079,2.95254 0.310707,3.09799 0.06794,0.20749 2.701261,0.26446 12.223768,0.26446 h 12.13717 z m 21.59179,1.26939 c 1.12056,-5.18097 1.14812,-10.41384 0.0813,-15.44429 l -0.34771,-1.63963 h -6.45319 -6.45319 l 0.13338,1.57781 c 0.32982,3.90176 0.38389,7.71003 0.16083,11.32769 -0.13272,2.15268 -0.29745,4.22338 -0.36605,4.60155 l -0.12472,0.68759 h 6.56454 6.56455 z M 82.548486,218.40779 c 1.070848,-3.44828 2.06242,-6.08842 3.416736,-9.09732 0.6154,-1.36724 1.050825,-2.4859 0.967612,-2.4859 -0.400792,0 -4.011451,2.00718 -5.738467,3.19004 -2.198376,1.50569 -5.866915,4.91332 -7.498419,6.96511 -1.230077,1.54695 -2.649352,3.61384 -2.649352,3.85825 0,0.0888 2.406838,0.1615 5.348529,0.1615 h 5.348528 z m 28.695574,2.52998 c 0,-0.0339 -0.41634,-1.2954 -0.9252,-2.80325 -1.60185,-4.74658 -3.27942,-8.44959 -5.57902,-12.31488 l -1.16428,-1.95699 h -2.48413 -2.48414 l -1.137451,1.8512 c -2.536805,4.12865 -4.249136,7.738 -6.022193,12.69394 l -0.92721,2.59168 h 10.361814 c 5.69899,0 10.36181,-0.0278 10.36181,-0.0617 z m 19.46403,-0.0557 c 0,-0.0646 -0.39755,-0.70719 -0.88344,-1.42806 -3.37893,-5.01296 -8.29701,-9.35523 -13.69241,-12.08929 -1.36025,-0.68929 -1.39997,-0.99308 0.45495,3.4796 1.44829,3.49218 2.17909,5.59804 2.91844,8.40973 l 0.45897,1.74542 h 5.37175 c 2.95446,0 5.37174,-0.0528 5.37174,-0.1174 z m -92.031028,12.48127 c -2.850846,-0.26736 -5.379944,-0.49288 -5.620217,-0.50115 -0.430521,-0.0148 -0.43277,-0.045 -0.155028,-2.07782 1.175315,-8.6023 4.049214,-17.67616 7.812339,-24.66616 3.161158,-5.87185 6.810285,-10.75675 11.483682,-15.37262 10.10361,-9.97924 23.94612,-17.2043 37.254964,-19.44512 3.855288,-0.64911 6.400122,-0.85358 10.700208,-0.85972 7.10182,-0.0101 13.03303,0.8776 20.6115,3.08498 2.57345,0.74956 8.47809,2.85909 8.84838,3.16122 0.0632,0.0516 -5.4108,11.95677 -5.57423,12.1231 -0.0402,0.0409 -1.0551,-0.30677 -2.2554,-0.77257 -7.86044,-3.05039 -14.5413,-4.24274 -22.386875,-3.99542 -6.198442,0.1954 -12.119014,1.30936 -17.226762,3.24124 -11.084382,4.19239 -20.586376,11.65141 -27.184318,21.33958 -4.646042,6.82207 -7.783593,15.15462 -8.683293,23.06065 -0.119174,1.04725 -0.217464,1.97549 -0.21842,2.06276 -0.0026,0.23972 -1.706183,0.15164 -7.40653,-0.38295 z M 151.45196,217.77309 c -1.96986,-4.77648 -5.37701,-10.3184 -8.77222,-14.2685 -2.14554,-2.49621 -6.06102,-6.2387 -8.63392,-8.25248 l -1.63406,-1.27896 3.72282,-5.36907 c 2.04756,-2.95299 3.79034,-5.44352 3.87285,-5.53451 0.19196,-0.2117 3.43417,2.27892 6.5857,5.05904 6.08059,5.36398 11.46537,12.45527 15.29661,20.1443 1.58768,3.18636 3.22067,6.96158 3.07072,7.099 -0.0867,0.0794 -12.40998,4.56973 -12.54133,4.56973 -0.0401,0 -0.4753,-0.97585 -0.96717,-2.16855 z"
         id="path2561" /></g></g></svg>
